<?xml version="1.0" encoding="UTF-8"?>
<svg version="1.1" xmlns="http://www.w3.org/2000/svg" width="512" height="512">
<path d="M0 0 C15.21026309 7.99838452 27.40717672 12.45179259 44.6875 11.5 C46.8243929 18.36189512 48.53855033 25.71741888 45.25 32.4375 C44.4765625 33.4584375 44.4765625 33.4584375 43.6875 34.5 C42.89126178 36.59415804 42.89126178 36.59415804 42.6875 38.5 C43.0175 39.16 43.3475 39.82 43.6875 40.5 C44.7084004 51.07719755 42.63898213 58.904762 36.1875 67.3125 C35.02698887 68.71345529 33.86110021 70.10999124 32.6875 71.5 C32.048125 72.36625 31.40875 73.2325 30.75 74.125 C28.24038929 77.01485476 25.39846555 79.29322933 22.39453125 81.65625 C20.19700305 84.0297816 19.92119294 85.27323981 19.6875 88.5 C19.92962222 91.32197617 20.23100577 94.0754385 20.625 96.875 C21.34304994 102.11908085 21.91400222 107.1874934 21.6875 112.5 C21.3575 112.83 21.0275 113.16 20.6875 113.5 C20.74330371 115.87554512 20.86398719 118.21123661 21.03686523 120.57910156 C21.11043196 121.65836599 21.11043196 121.65836599 21.18548489 122.75943375 C21.66332231 129.57253447 22.26447824 136.37403477 22.90440559 143.17369843 C23.10513308 145.3141022 23.30160223 147.45486141 23.49693298 149.59576416 C24.05124151 155.67023657 24.6075893 161.74448792 25.17895508 167.81738281 C30.00099682 219.17552165 30.00099682 219.17552165 22.8125 230.4375 C18.25406224 234.86186606 13.83613447 236.63338175 7.56152344 236.61352539 C6.76099548 236.61344986 5.96046753 236.61337433 5.13568115 236.61329651 C3.85422211 236.60555458 3.85422211 236.60555458 2.546875 236.59765625 C1.66469299 236.5962413 0.78251099 236.59482635 -0.12640381 236.59336853 C-2.93847065 236.58778001 -5.7504573 236.57522961 -8.5625 236.5625 C-10.47135302 236.55748352 -12.38020728 236.55292087 -14.2890625 236.54882812 C-18.96357247 236.53781434 -23.63802265 236.52055758 -28.3125 236.5 C-29.42025382 253.32528263 -28.89695924 268.258117 -17.68359375 281.65234375 C-9.02039472 290.33930081 2.84009472 294.37377161 14.04826355 298.79829407 C22.04132988 301.97415836 29.70513767 305.74359777 37.375 309.625 C38.0424826 309.96082092 38.70996521 310.29664185 39.39767456 310.64263916 C54.75787688 318.38389488 69.782708 326.63683831 83.6875 336.8125 C84.3165625 337.26786133 84.945625 337.72322266 85.59375 338.19238281 C96.51162681 346.51846102 102.77824302 360.31388717 105.6875 373.5 C104.7774435 383.89623863 91.16585859 393.07485423 83.6875 399.5 C68.76850482 411.78331783 52.78885855 422.51111747 35.6875 431.5 C34.93855469 431.89687012 34.18960937 432.29374023 33.41796875 432.70263672 C11.40909103 444.20437402 -12.88913774 452.10160926 -37.3125 456.5 C-38.15619141 456.66081055 -38.99988281 456.82162109 -39.86914062 456.98730469 C-67.87125178 462.11996678 -100.39564396 462.13239593 -128.3125 456.5 C-129.21436035 456.32307617 -130.1162207 456.14615234 -131.04541016 455.96386719 C-137.51849895 454.66498713 -143.92138488 453.15342874 -150.3125 451.5 C-151.13250488 451.29036621 -151.95250977 451.08073242 -152.79736328 450.86474609 C-199.41956463 438.6718249 -239.07005963 411.65180804 -272.3125 377.5 C-267.17219116 355.81150393 -258.51914874 341.77666035 -239.59179688 329.89746094 C-231.95614873 325.21596458 -224.14594983 320.83951408 -216.3125 316.5 C-215.60432129 316.10458008 -214.89614258 315.70916016 -214.16650391 315.30175781 C-197.22735646 305.88696553 -179.40047165 298.01858601 -161.6875 290.1875 C-161.0493335 289.90374512 -160.41116699 289.61999023 -159.75366211 289.32763672 C-155.55649379 287.5 -155.55649379 287.5 -153.3125 287.5 C-153.06242187 286.96117187 -152.81234375 286.42234375 -152.5546875 285.8671875 C-151.03729808 282.97555861 -149.26315585 280.33248208 -147.4375 277.625 C-146.75945312 276.61695313 -146.08140625 275.60890625 -145.3828125 274.5703125 C-143.3125 271.5 -143.3125 271.5 -141.22338867 268.87390137 C-138.77551957 264.55189714 -138.69419113 261.32755247 -138.66796875 256.44726562 C-138.64810913 255.5551387 -138.62824951 254.66301178 -138.60778809 253.74385071 C-138.54948693 250.79785599 -138.52210845 247.85272655 -138.5 244.90625 C-138.48869049 243.89111832 -138.47738098 242.87598663 -138.46572876 241.83009338 C-138.40578884 236.44251374 -138.36887059 231.05536048 -138.3515625 225.66748047 C-138.33410155 221.2497798 -138.27887093 216.83523921 -138.1875 212.41845703 C-136.59024393 179.53134655 -136.59024393 179.53134655 -149.86538696 150.45608521 C-152.23150334 147.25776888 -153.85596786 143.73333582 -155.5 140.125 C-155.8275679 139.41218872 -156.1551358 138.69937744 -156.49263 137.96496582 C-168.09243755 112.44125696 -181.57600615 78.51242655 -171.3125 50.5 C-169.63755698 47.46480023 -167.68212589 45.01911163 -165.3125 42.5 C-164.45398438 41.54287109 -164.45398438 41.54287109 -163.578125 40.56640625 C-160.1675271 36.9369868 -157.06198135 34.24470744 -152.3125 32.5 C-151.03375 32.5 -149.755 32.5 -148.4375 32.5 C-145.29737095 32.21941813 -144.4623121 31.66584258 -142.3046875 29.27734375 C-140.94449628 27.3384045 -139.60948625 25.38161695 -138.296875 23.41015625 C-124.31814046 2.90984674 -96.69169511 -9.22344555 -73.3125 -14.5 C-46.47089612 -19.5062723 -23.41129648 -12.63852195 0 0 Z " fill="#FE9EB6" transform="translate(339.3125,52.5)"/>
<path d="M0 0 C15.21026309 7.99838452 27.40717672 12.45179259 44.6875 11.5 C46.8243929 18.36189512 48.53855033 25.71741888 45.25 32.4375 C44.4765625 33.4584375 44.4765625 33.4584375 43.6875 34.5 C42.89126178 36.59415804 42.89126178 36.59415804 42.6875 38.5 C43.0175 39.16 43.3475 39.82 43.6875 40.5 C44.7084004 51.07719755 42.63898213 58.904762 36.1875 67.3125 C35.02698887 68.71345529 33.86110021 70.10999124 32.6875 71.5 C32.048125 72.36625 31.40875 73.2325 30.75 74.125 C28.24038929 77.01485476 25.39846555 79.29322933 22.39453125 81.65625 C20.19700305 84.0297816 19.92119294 85.27323981 19.6875 88.5 C19.92962222 91.32197617 20.23100577 94.0754385 20.625 96.875 C21.34304994 102.11908085 21.91400222 107.1874934 21.6875 112.5 C21.3575 112.83 21.0275 113.16 20.6875 113.5 C20.74330371 115.87554512 20.86398719 118.21123661 21.03686523 120.57910156 C21.11043196 121.65836599 21.11043196 121.65836599 21.18548489 122.75943375 C21.66332231 129.57253447 22.26447824 136.37403477 22.90440559 143.17369843 C23.10513308 145.3141022 23.30160223 147.45486141 23.49693298 149.59576416 C24.05124151 155.67023657 24.6075893 161.74448792 25.17895508 167.81738281 C30.00099682 219.17552165 30.00099682 219.17552165 22.8125 230.4375 C18.25406224 234.86186606 13.83613447 236.63338175 7.56152344 236.61352539 C6.76099548 236.61344986 5.96046753 236.61337433 5.13568115 236.61329651 C3.85422211 236.60555458 3.85422211 236.60555458 2.546875 236.59765625 C1.66469299 236.5962413 0.78251099 236.59482635 -0.12640381 236.59336853 C-2.93847065 236.58778001 -5.7504573 236.57522961 -8.5625 236.5625 C-10.47135302 236.55748352 -12.38020728 236.55292087 -14.2890625 236.54882812 C-18.96359728 236.53866609 -23.63795907 236.51908842 -28.3125 236.5 C-28.3125 246.07 -28.3125 255.64 -28.3125 265.5 C-31.64730469 266.70398438 -34.98210937 267.90796875 -38.41796875 269.1484375 C-41.65152262 270.31652696 -44.88497046 271.48490945 -48.1184082 272.65332031 C-50.36374015 273.46449936 -52.609182 274.27537426 -54.85473633 275.0859375 C-58.08443762 276.2518018 -61.31374066 277.41876326 -64.54296875 278.5859375 C-65.54522995 278.94746918 -66.54749115 279.30900085 -67.5801239 279.68148804 C-68.52072159 280.02168976 -69.46131927 280.36189148 -70.43041992 280.71240234 C-71.66619026 281.15874527 -71.66619026 281.15874527 -72.92692566 281.61410522 C-74.59079753 282.23199224 -76.23455382 282.90565086 -77.85917664 283.62039185 C-85.16446558 286.23961107 -93.31387118 282.33336182 -100.1484375 279.71875 C-101.14960602 279.34520386 -102.15077454 278.97165771 -103.18228149 278.58679199 C-106.35440547 277.40084128 -109.52095958 276.20076909 -112.6875 275 C-114.83687973 274.19305126 -116.98661623 273.38705214 -119.13671875 272.58203125 C-123.84984872 270.8165378 -128.55941747 269.04188792 -133.26596069 267.25891113 C-134.936243 266.63952609 -136.62249032 266.06333656 -138.3125 265.5 C-138.29838074 264.35868622 -138.28426147 263.21737244 -138.26971436 262.04147339 C-138.14346817 251.18764805 -138.08231642 240.33506096 -138.08190536 229.4804821 C-138.07968266 223.90219219 -138.05599043 218.32585804 -137.97998047 212.74804688 C-136.54994836 179.68282373 -136.54994836 179.68282373 -149.86941528 150.45004272 C-152.2343268 147.25433395 -153.85687104 143.73064226 -155.5 140.125 C-155.82758804 139.41215851 -156.15517609 138.69931702 -156.49269104 137.96487427 C-168.09231184 112.44101434 -181.57604583 78.51253487 -171.3125 50.5 C-169.63755698 47.46480023 -167.68212589 45.01911163 -165.3125 42.5 C-164.74015625 41.86191406 -164.1678125 41.22382812 -163.578125 40.56640625 C-160.1675271 36.9369868 -157.06198135 34.24470744 -152.3125 32.5 C-151.03375 32.5 -149.755 32.5 -148.4375 32.5 C-145.29737095 32.21941813 -144.4623121 31.66584258 -142.3046875 29.27734375 C-140.94449628 27.3384045 -139.60948625 25.38161695 -138.296875 23.41015625 C-124.31814046 2.90984674 -96.69169511 -9.22344555 -73.3125 -14.5 C-46.47089612 -19.5062723 -23.41129648 -12.63852195 0 0 Z " fill="#C46258" transform="translate(339.3125,52.5)"/>
<path d="M0 0 C15.21026309 7.99838452 27.40717672 12.45179259 44.6875 11.5 C46.8243929 18.36189512 48.53855033 25.71741888 45.25 32.4375 C44.4765625 33.4584375 44.4765625 33.4584375 43.6875 34.5 C42.89126178 36.59415804 42.89126178 36.59415804 42.6875 38.5 C43.0175 39.16 43.3475 39.82 43.6875 40.5 C44.7084004 51.07719755 42.63898213 58.904762 36.1875 67.3125 C35.02698887 68.71345529 33.86110021 70.10999124 32.6875 71.5 C32.048125 72.36625 31.40875 73.2325 30.75 74.125 C28.24038929 77.01485476 25.39846555 79.29322933 22.39453125 81.65625 C20.19700305 84.0297816 19.92119294 85.27323981 19.6875 88.5 C19.92962222 91.32197617 20.23100577 94.0754385 20.625 96.875 C21.34555759 102.13739478 21.80672189 107.18410653 21.6875 112.5 C20.0375 112.83 18.3875 113.16 16.6875 113.5 C13.69025384 108.36186373 11.93463239 103.2599021 10.5 97.5 C10.33338867 96.83613281 10.16677734 96.17226562 9.99511719 95.48828125 C8.88456305 90.8453896 8.21173228 86.2445669 7.6875 81.5 C7.13964844 81.75394531 6.59179688 82.00789063 6.02734375 82.26953125 C-6.4061954 87.66750678 -23.7610055 92.03938127 -37 87.0625 C-38.093125 86.546875 -39.18625 86.03125 -40.3125 85.5 C-43.36896607 84.44533179 -43.36896607 84.44533179 -46.3125 85.5 C-46.65798714 91.83393082 -45.60592747 96.60261508 -43.3125 102.5 C-45.08315111 103.14633275 -46.85402753 103.7920483 -48.625 104.4375 C-50.10419922 104.97697266 -50.10419922 104.97697266 -51.61328125 105.52734375 C-59.53053545 108.3803051 -70.62772478 109.39737961 -78.546875 105.73046875 C-85.36986163 100.97551126 -89.70747812 93.83136662 -93.3125 86.5 C-95.73665491 86.62099323 -95.73665491 86.62099323 -98.3125 87.5 C-105.90166457 98.38181798 -107.19988691 113.71943997 -109.3125 126.5 C-111.79104681 125.52440179 -114.24583419 124.53024244 -116.671875 123.4296875 C-122.22689149 120.97894493 -127.21974091 119.31997946 -133.3125 120.5 C-136.63685141 122.33900291 -137.93219424 123.61083443 -139.421875 127.09375 C-140.51435931 131.27202333 -140.65339252 135.07506162 -140.625 139.375 C-140.62298584 140.20418945 -140.62097168 141.03337891 -140.61889648 141.88769531 C-140.5089637 148.78383834 -139.52331807 155.2558354 -138.06640625 161.984375 C-137.31705557 165.47875641 -136.78022085 168.95803625 -136.3125 172.5 C-139.95304311 169.11174867 -142.42845016 165.94774224 -144.73046875 161.546875 C-145.34027588 160.38285156 -145.95008301 159.21882812 -146.57836914 158.01953125 C-147.22029642 156.76372716 -147.8608076 155.50719833 -148.5 154.25 C-148.82853973 153.6091748 -149.15707947 152.96834961 -149.49557495 152.30810547 C-164.34813529 123.25260693 -181.14098984 86.60433069 -172.3515625 53.3359375 C-170.75539238 48.9794732 -168.46908184 45.85571201 -165.3125 42.5 C-164.74015625 41.86191406 -164.1678125 41.22382812 -163.578125 40.56640625 C-160.1675271 36.9369868 -157.06198135 34.24470744 -152.3125 32.5 C-151.03375 32.5 -149.755 32.5 -148.4375 32.5 C-145.29737095 32.21941813 -144.4623121 31.66584258 -142.3046875 29.27734375 C-140.94449628 27.3384045 -139.60948625 25.38161695 -138.296875 23.41015625 C-124.31814046 2.90984674 -96.69169511 -9.22344555 -73.3125 -14.5 C-46.47089612 -19.5062723 -23.41129648 -12.63852195 0 0 Z " fill="#3C3276" transform="translate(339.3125,52.5)"/>
<path d="M0 0 C3.65969926 3.39241786 5.72544211 7.48707217 8.125 11.8125 C8.58003906 12.60720703 9.03507812 13.40191406 9.50390625 14.22070312 C9.93832031 14.99994141 10.37273437 15.77917969 10.8203125 16.58203125 C11.41223389 17.63741089 11.41223389 17.63741089 12.01611328 18.71411133 C14.63527983 24.79928662 14.3200624 31.76293774 14.61328125 38.28515625 C14.72612785 40.64477672 14.83900364 43.00439579 14.9519043 45.36401367 C15.01050629 46.61652924 15.06910828 47.8690448 15.12948608 49.15951538 C15.44438126 55.87502117 15.77082417 62.58994627 16.1015625 69.3046875 C16.13620543 70.00915953 16.17084835 70.71363155 16.20654106 71.43945122 C16.77570944 82.96566859 17.4121351 94.48726258 18.0859375 106.0078125 C18.13173887 106.79144857 18.17754025 107.57508465 18.22472954 108.38246727 C18.67587014 116.08808845 19.13312277 123.79333293 19.59677887 131.49821091 C19.76905217 134.36809304 19.93938226 137.23808872 20.10940933 140.10810471 C20.22647548 142.06980284 20.34656754 144.03131969 20.46676636 145.99282837 C20.53727203 147.18201874 20.60777771 148.37120911 20.68041992 149.59643555 C20.74243088 150.62125534 20.80444183 151.64607513 20.86833191 152.70195007 C21.03186942 156.79827184 21 160.90041508 21 165 C7.47 165 -6.06 165 -20 165 C-19.57374136 147.66548205 -19.09323512 130.45548794 -17.7331543 113.17138672 C-17.01087671 103.80411661 -16.61232901 94.44361811 -16.34179688 85.05297852 C-16.29442383 83.49148071 -16.29442383 83.49148071 -16.24609375 81.8984375 C-16.22216553 80.99786621 -16.1982373 80.09729492 -16.17358398 79.16943359 C-16.02790194 76.5094556 -15.78381496 73.90111345 -15.49609375 71.25439453 C-14.97005824 66.17004632 -14.85954338 61.13883025 -14.81640625 56.03125 C-14.75640476 53.16586101 -14.68804797 50.30074022 -14.61938477 47.43554688 C-14.58174383 45.49308079 -14.55969434 43.55024415 -14.55395508 41.60742188 C-14.47869868 24.89766269 -10.31941906 13.18225315 0 0 Z " fill="#D74D9F" transform="translate(256,342)"/>
<path d="M0 0 C3.19824392 3.9288451 6.22269994 7.95705733 9.1875 12.0625 C9.86329102 12.97999023 9.86329102 12.97999023 10.55273438 13.91601562 C12.72125756 16.92333789 14.26035891 19.3718606 15 23 C4.42464638 29.75937011 -6.21997623 36.39985331 -16.94177246 42.92410278 C-18.18240758 43.67906872 -19.42256618 44.43481832 -20.66223145 45.19137573 C-22.42559842 46.2669039 -24.19098078 47.33904149 -25.95703125 48.41015625 C-26.97772705 49.03027588 -27.99842285 49.65039551 -29.05004883 50.28930664 C-31.97988128 51.98833304 -34.9550932 53.51879359 -38 55 C-38.4439209 54.19256348 -38.8878418 53.38512695 -39.34521484 52.55322266 C-40.99369026 49.55870085 -42.64521028 46.56590167 -44.29882812 43.57421875 C-45.01392477 42.27899834 -45.72780071 40.98310319 -46.44042969 39.68652344 C-47.4648949 37.82308114 -48.49372401 35.96210861 -49.5234375 34.1015625 C-50.14138184 32.98088379 -50.75932617 31.86020508 -51.39599609 30.70556641 C-52.86972411 27.96517832 -52.86972411 27.96517832 -55 26 C-57.1066405 29.70693315 -59.20986997 33.41579081 -61.3125 37.125 C-61.90740234 38.17171875 -62.50230469 39.2184375 -63.11523438 40.296875 C-63.69208984 41.31523437 -64.26894531 42.33359375 -64.86328125 43.3828125 C-65.39219971 44.31496582 -65.92111816 45.24711914 -66.46606445 46.20751953 C-68.05629496 49.10248316 -69.54136833 52.03685571 -71 55 C-74.31967592 53.74994928 -77.27293803 52.34134089 -80.2734375 50.453125 C-81.08748047 49.94442871 -81.90152344 49.43573242 -82.74023438 48.91162109 C-83.60970703 48.36328613 -84.47917969 47.81495117 -85.375 47.25 C-87.24688242 46.07990742 -89.11929863 44.91066844 -90.9921875 43.7421875 C-92.45736816 42.82711426 -92.45736816 42.82711426 -93.95214844 41.89355469 C-99.11400004 38.68662413 -104.30656641 35.53044085 -109.5 32.375 C-110.47243652 31.78364258 -111.44487305 31.19228516 -112.44677734 30.58300781 C-116.62455065 28.04411088 -120.80637033 25.5126428 -125 23 C-123.36349987 19.4739327 -121.29621895 16.34495867 -119.125 13.125 C-118.44695312 12.11695313 -117.76890625 11.10890625 -117.0703125 10.0703125 C-116.38710937 9.05710937 -115.70390625 8.04390625 -115 7 C-113.6643041 5.00156288 -112.33196213 3.00092966 -111 1 C-104.73318361 1.57049194 -99.40360616 3.56099629 -93.5703125 5.8515625 C-91.53802701 6.62830205 -89.50546624 7.40432167 -87.47265625 8.1796875 C-84.29440611 9.4006935 -81.11874582 10.62744516 -77.94775391 11.8671875 C-74.86995109 13.0667904 -71.78366332 14.24193126 -68.6953125 15.4140625 C-67.7575296 15.78794098 -66.8197467 16.16181946 -65.85354614 16.54702759 C-55.50480985 20.43437781 -48.19893915 18.05766323 -38.1640625 14.21875 C-36.66230972 13.65843079 -36.66230972 13.65843079 -35.13021851 13.08679199 C-31.95809453 11.90084128 -28.79154042 10.70076909 -25.625 9.5 C-23.47562027 8.69305126 -21.32588377 7.88705214 -19.17578125 7.08203125 C-14.46265128 5.3165378 -9.75308253 3.54188792 -5.04653931 1.75891113 C-3.376257 1.13952609 -1.69000968 0.56333656 0 0 Z " fill="#F9E1DB" transform="translate(311,317)"/>
<path d="M0 0 C1.10794922 0.56267578 1.10794922 0.56267578 2.23828125 1.13671875 C22.22292927 11.21791985 40.80669585 16.75828142 63 20 C63 26.93 63 33.86 63 41 C42.19248849 38.33237032 21.30382704 30.82320169 7 15 C3.44210787 10.20398863 0.95373649 5.93203137 0 0 Z " fill="#3F3376" transform="translate(248,265)"/>
<path d="M0 0 C3.65969926 3.39241786 5.72544211 7.48707217 8.125 11.8125 C8.58003906 12.60720703 9.03507812 13.40191406 9.50390625 14.22070312 C13.13660409 20.73692225 14.14558547 25.89730726 14.0625 33.375 C14.05347656 34.43460937 14.04445313 35.49421875 14.03515625 36.5859375 C14.02355469 37.38257813 14.01195312 38.17921875 14 39 C10.444218 37.65788025 7.20894833 36.07755303 3.91796875 34.1796875 C2.98662109 33.64472656 2.05527344 33.10976563 1.09570312 32.55859375 C0.13599609 32.00300781 -0.82371094 31.44742187 -1.8125 30.875 C-2.79154297 30.31167969 -3.77058594 29.74835938 -4.77929688 29.16796875 C-7.18789555 27.78155585 -9.59471395 26.39214945 -12 25 C-11.539144 19.05687789 -8.91557948 14.73712168 -6 9.6875 C-5.5359375 8.86443359 -5.071875 8.04136719 -4.59375 7.19335938 C-1.18702381 1.18702381 -1.18702381 1.18702381 0 0 Z " fill="#BB3283" transform="translate(256,342)"/>
</svg>
